  0
SECTION
  2
BLOCKS
  0
ENDSEC
  0
SECTION
  2
ENTITIES
  0
LINE
  8
0
 10
-12.5
 11
-12.227
 20
0
 21
2.599
  0
LINE
  8
0
 10
-12.227
 11
-11.419
 20
2.599
 21
5.084
  0
LINE
  8
0
 10
-11.419
 11
-10.113
 20
5.084
 21
7.347
  0
LINE
  8
0
 10
-10.113
 11
-8.364
 20
7.347
 21
9.289
  0
LINE
  8
0
 10
-8.364
 11
-6.25
 20
9.289
 21
10.825
  0
LINE
  8
0
 10
-6.25
 11
-3.863
 20
10.825
 21
11.888
  0
LINE
  8
0
 10
-3.863
 11
-1.307
 20
11.888
 21
12.432
  0
LINE
  8
0
 10
-1.307
 11
1.307
 20
12.432
 21
12.432
  0
LINE
  8
0
 10
1.307
 11
3.863
 20
12.432
 21
11.888
  0
LINE
  8
0
 10
3.863
 11
6.25
 20
11.888
 21
10.825
  0
LINE
  8
0
 10
6.25
 11
8.364
 20
10.825
 21
9.289
  0
LINE
  8
0
 10
8.364
 11
10.113
 20
9.289
 21
7.347
  0
LINE
  8
0
 10
10.113
 11
11.419
 20
7.347
 21
5.084
  0
LINE
  8
0
 10
11.419
 11
12.227
 20
5.084
 21
2.599
  0
LINE
  8
0
 10
12.227
 11
12.5
 20
2.599
 21
0
  0
LINE
  8
0
 10
12.5
 11
12.227
 20
0
 21
-2.599
  0
LINE
  8
0
 10
12.227
 11
11.419
 20
-2.599
 21
-5.084
  0
LINE
  8
0
 10
11.419
 11
10.113
 20
-5.084
 21
-7.347
  0
LINE
  8
0
 10
10.113
 11
8.364
 20
-7.347
 21
-9.289
  0
LINE
  8
0
 10
8.364
 11
6.25
 20
-9.289
 21
-10.825
  0
LINE
  8
0
 10
6.25
 11
3.863
 20
-10.825
 21
-11.888
  0
LINE
  8
0
 10
3.863
 11
1.307
 20
-11.888
 21
-12.432
  0
LINE
  8
0
 10
1.307
 11
-1.307
 20
-12.432
 21
-12.432
  0
LINE
  8
0
 10
-1.307
 11
-3.863
 20
-12.432
 21
-11.888
  0
LINE
  8
0
 10
-3.863
 11
-6.25
 20
-11.888
 21
-10.825
  0
LINE
  8
0
 10
-6.25
 11
-8.364
 20
-10.825
 21
-9.289
  0
LINE
  8
0
 10
-8.364
 11
-10.113
 20
-9.289
 21
-7.347
  0
LINE
  8
0
 10
-10.113
 11
-11.419
 20
-7.347
 21
-5.084
  0
LINE
  8
0
 10
-11.419
 11
-12.227
 20
-5.084
 21
-2.599
  0
LINE
  8
0
 10
-12.227
 11
-12.5
 20
-2.599
 21
0
  0
LINE
  8
0
 10
-5
 11
-4.619
 20
0
 21
1.913
  0
LINE
  8
0
 10
-4.619
 11
-3.536
 20
1.913
 21
3.536
  0
LINE
  8
0
 10
-3.536
 11
-1.913
 20
3.536
 21
4.619
  0
LINE
  8
0
 10
-1.913
 11
0
 20
4.619
 21
5
  0
LINE
  8
0
 10
0
 11
1.913
 20
5
 21
4.619
  0
LINE
  8
0
 10
1.913
 11
3.536
 20
4.619
 21
3.536
  0
LINE
  8
0
 10
3.536
 11
4.619
 20
3.536
 21
1.913
  0
LINE
  8
0
 10
4.619
 11
5
 20
1.913
 21
0
  0
LINE
  8
0
 10
5
 11
4.619
 20
0
 21
-1.913
  0
LINE
  8
0
 10
4.619
 11
3.536
 20
-1.913
 21
-3.536
  0
LINE
  8
0
 10
3.536
 11
1.913
 20
-3.536
 21
-4.619
  0
LINE
  8
0
 10
1.913
 11
0
 20
-4.619
 21
-5
  0
LINE
  8
0
 10
0
 11
-1.913
 20
-5
 21
-4.619
  0
LINE
  8
0
 10
-1.913
 11
-3.536
 20
-4.619
 21
-3.536
  0
LINE
  8
0
 10
-3.536
 11
-4.619
 20
-3.536
 21
-1.913
  0
LINE
  8
0
 10
-4.619
 11
-5
 20
-1.913
 21
0
  0
ENDSEC
  0
SECTION
  2
OBJECTS
  0
DICTIONARY
  0
ENDSEC
  0
EOF
