G75*
%MOIN*%
%OFA0B0*%
%FSLAX24Y24*%
%IPPOS*%
%LPD*%
%AMOC8*
5,1,8,0,0,1.08239X$1,22.5*
%
%ADD10C,0.0010*%
%ADD11R,0.0472X0.0551*%
%ADD12R,0.0630X0.0709*%
%ADD13R,0.0709X0.0630*%
%ADD14C,0.0740*%
%ADD15C,0.0160*%
D10*
X001735Y001335D02*
X001045Y002105D01*
X000525Y002995D01*
X000215Y003975D01*
X000105Y004995D01*
X000215Y006015D01*
X000525Y006995D01*
X001045Y007885D01*
X001735Y008655D01*
X002565Y009255D01*
X003505Y009675D01*
X004515Y009885D01*
X005535Y009885D01*
X006545Y009675D01*
X007485Y009255D01*
X008315Y008655D01*
X009005Y007885D01*
X009525Y006995D01*
X009835Y006015D01*
X009945Y004995D01*
X009835Y003975D01*
X009525Y002995D01*
X009005Y002105D01*
X008315Y001335D01*
X007485Y000735D01*
X006545Y000315D01*
X005535Y000105D01*
X004515Y000105D01*
X003505Y000315D01*
X002565Y000735D01*
X001735Y001335D01*
X003635Y003605D02*
X003205Y004245D01*
X003055Y004995D01*
X003205Y005745D01*
X003635Y006385D01*
X004275Y006815D01*
X005025Y006965D01*
X005775Y006815D01*
X006415Y006385D01*
X006845Y005745D01*
X006995Y004995D01*
X006845Y004245D01*
X006415Y003605D01*
X005775Y003175D01*
X005025Y003025D01*
X004275Y003175D01*
X003635Y003605D01*
D11*
G36*
X003164Y002323D02*
X003400Y002730D01*
X003876Y002455D01*
X003640Y002048D01*
X003164Y002323D01*
G37*
G36*
X002574Y001300D02*
X002810Y001707D01*
X003286Y001432D01*
X003050Y001025D01*
X002574Y001300D01*
G37*
X002016Y004995D03*
X000834Y004995D03*
G36*
X003640Y007942D02*
X003876Y007535D01*
X003400Y007260D01*
X003164Y007667D01*
X003640Y007942D01*
G37*
G36*
X003050Y008965D02*
X003286Y008558D01*
X002810Y008283D01*
X002574Y008690D01*
X003050Y008965D01*
G37*
G36*
X006886Y007667D02*
X006650Y007260D01*
X006174Y007535D01*
X006410Y007942D01*
X006886Y007667D01*
G37*
G36*
X007476Y008690D02*
X007240Y008283D01*
X006764Y008558D01*
X007000Y008965D01*
X007476Y008690D01*
G37*
X008034Y004995D03*
X009216Y004995D03*
G36*
X006410Y002048D02*
X006174Y002455D01*
X006650Y002730D01*
X006886Y002323D01*
X006410Y002048D01*
G37*
G36*
X007000Y001025D02*
X006764Y001432D01*
X007240Y001707D01*
X007476Y001300D01*
X007000Y001025D01*
G37*
D12*
G36*
X008715Y002455D02*
X008171Y002770D01*
X008525Y003383D01*
X009069Y003068D01*
X008715Y002455D01*
G37*
G36*
X007760Y003007D02*
X007216Y003322D01*
X007570Y003935D01*
X008114Y003620D01*
X007760Y003007D01*
G37*
G36*
X008114Y006370D02*
X007570Y006055D01*
X007216Y006668D01*
X007760Y006983D01*
X008114Y006370D01*
G37*
G36*
X009069Y006922D02*
X008525Y006607D01*
X008171Y007220D01*
X008715Y007535D01*
X009069Y006922D01*
G37*
G36*
X002290Y006983D02*
X002834Y006668D01*
X002480Y006055D01*
X001936Y006370D01*
X002290Y006983D01*
G37*
G36*
X001335Y007535D02*
X001879Y007220D01*
X001525Y006607D01*
X000981Y006922D01*
X001335Y007535D01*
G37*
G36*
X001936Y003620D02*
X002480Y003935D01*
X002834Y003322D01*
X002290Y003007D01*
X001936Y003620D01*
G37*
G36*
X000981Y003068D02*
X001525Y003383D01*
X001879Y002770D01*
X001335Y002455D01*
X000981Y003068D01*
G37*
D13*
X005025Y001946D03*
X005025Y000844D03*
X005025Y008044D03*
X005025Y009146D03*
D14*
X008825Y003995D03*
X006025Y001195D03*
D15*
X005560Y002738D01*
X006225Y002917D01*
X006530Y002389D01*
X006225Y002917D02*
X007103Y003795D01*
X007425Y004995D01*
X008034Y004995D01*
X007425Y004995D02*
X007103Y006195D01*
X006225Y007073D01*
X006530Y007601D01*
X006225Y007073D02*
X005025Y007395D01*
X003825Y007073D01*
X003786Y007034D01*
X003520Y007601D01*
X003786Y007034D02*
X002947Y006195D01*
X002625Y004995D01*
X002016Y004995D01*
X002625Y004995D02*
X002947Y003795D01*
X003825Y002917D01*
X003520Y002389D01*
X003825Y002917D02*
X005025Y002595D01*
X005560Y002738D01*
X005025Y001946D02*
X003725Y001595D01*
X002825Y002095D01*
X002385Y003471D01*
X001425Y004495D01*
X001425Y005495D01*
X002385Y006519D01*
X002825Y007895D01*
X003725Y008295D01*
X005025Y008044D01*
X006325Y008395D01*
X007325Y007795D01*
X007665Y006519D01*
X008625Y005495D01*
X008625Y004595D01*
X008825Y003995D01*
X007665Y003471D01*
X008620Y002919D02*
X007120Y001366D01*
X005025Y000844D02*
X002930Y001366D01*
X001430Y002919D02*
X000834Y004995D01*
X001430Y007071D02*
X002930Y008624D01*
X005025Y009146D02*
X007120Y008624D01*
X008620Y007071D02*
X009216Y004995D01*
M02*
