G75*
%MOIN*%
%OFA0B0*%
%FSLAX24Y24*%
%IPPOS*%
%LPD*%
%AMOC8*
5,1,8,0,0,1.08239X$1,22.5*
%
%ADD10C,0.0010*%
%ADD11C,0.0060*%
D10*
X001735Y001335D02*
X001045Y002105D01*
X000525Y002995D01*
X000215Y003975D01*
X000105Y004995D01*
X000215Y006015D01*
X000525Y006995D01*
X001045Y007885D01*
X001735Y008655D01*
X002565Y009255D01*
X003505Y009675D01*
X004515Y009885D01*
X005535Y009885D01*
X006545Y009675D01*
X007485Y009255D01*
X008315Y008655D01*
X009005Y007885D01*
X009525Y006995D01*
X009835Y006015D01*
X009945Y004995D01*
X009835Y003975D01*
X009525Y002995D01*
X009005Y002105D01*
X008315Y001335D01*
X007485Y000735D01*
X006545Y000315D01*
X005535Y000105D01*
X004515Y000105D01*
X003505Y000315D01*
X002565Y000735D01*
X001735Y001335D01*
X003635Y003605D02*
X003205Y004245D01*
X003055Y004995D01*
X003205Y005745D01*
X003635Y006385D01*
X004275Y006815D01*
X005025Y006965D01*
X005775Y006815D01*
X006415Y006385D01*
X006845Y005745D01*
X006995Y004995D01*
X006845Y004245D01*
X006415Y003605D01*
X005775Y003175D01*
X005025Y003025D01*
X004275Y003175D01*
X003635Y003605D01*
D11*
X003707Y002466D02*
X003601Y002359D01*
X004028Y001932D01*
X003921Y001825D01*
X003707Y001825D01*
X003601Y001932D01*
X003601Y002359D01*
X003707Y002466D02*
X003921Y002466D01*
X004028Y002359D01*
X004028Y001932D01*
X004245Y001825D02*
X004672Y001825D01*
X004245Y002252D01*
X004245Y002359D01*
X004352Y002466D01*
X004565Y002466D01*
X004672Y002359D01*
X005533Y001932D02*
X005533Y001825D01*
X005640Y001825D01*
X005640Y001932D01*
X005533Y001932D01*
X005533Y001825D02*
X005747Y001611D01*
X005963Y001825D02*
X006176Y001825D01*
X006069Y001825D02*
X006069Y002252D01*
X006176Y002252D01*
X006392Y002252D02*
X006606Y002252D01*
X006499Y002359D02*
X006499Y001932D01*
X006392Y001825D01*
X006823Y001932D02*
X006823Y002145D01*
X006930Y002252D01*
X007144Y002252D01*
X007250Y002145D01*
X007250Y001932D01*
X007144Y001825D01*
X006930Y001825D01*
X006823Y001932D01*
X007468Y001825D02*
X007468Y002145D01*
X007575Y002252D01*
X007895Y002252D01*
X007895Y001825D01*
X006069Y002466D02*
X006069Y002572D01*
X003383Y002252D02*
X003170Y002466D01*
X003170Y001825D01*
X003383Y001825D02*
X002956Y001825D01*
X002739Y001932D02*
X002632Y001825D01*
X002418Y001825D01*
X002312Y001932D01*
X002312Y002145D01*
X002418Y002252D01*
X002525Y002252D01*
X002739Y002145D01*
X002739Y002466D01*
X002312Y002466D01*
X002900Y007711D02*
X002793Y007818D01*
X002793Y008352D01*
X003114Y008352D01*
X003220Y008245D01*
X003220Y008032D01*
X003114Y007925D01*
X002793Y007925D01*
X002900Y007711D02*
X003007Y007711D01*
X003438Y007925D02*
X003438Y008245D01*
X003545Y008352D01*
X003865Y008352D01*
X003865Y007925D01*
X004081Y007925D02*
X004295Y007925D01*
X004188Y007925D02*
X004188Y008352D01*
X004295Y008352D01*
X004511Y008352D02*
X004618Y008352D01*
X004832Y008139D01*
X004832Y008352D02*
X004832Y007925D01*
X004188Y008566D02*
X004188Y008672D01*
X005694Y008566D02*
X005694Y007925D01*
X006014Y007925D01*
X006121Y008032D01*
X006121Y008245D01*
X006014Y008352D01*
X005694Y008352D01*
X006338Y008245D02*
X006338Y008139D01*
X006765Y008139D01*
X006765Y008245D02*
X006765Y008032D01*
X006659Y007925D01*
X006445Y007925D01*
X006338Y008245D02*
X006445Y008352D01*
X006659Y008352D01*
X006765Y008245D01*
X006981Y007925D02*
X007195Y007925D01*
X007088Y007925D02*
X007088Y008566D01*
X007195Y008566D01*
M02*
