G75*
%MOIN*%
%OFA0B0*%
%FSLAX24Y24*%
%IPPOS*%
%LPD*%
%AMOC8*
5,1,8,0,0,1.08239X$1,22.5*
%
%ADD10C,0.0010*%
D10*
X001735Y001335D02*
X001045Y002105D01*
X000525Y002995D01*
X000215Y003975D01*
X000105Y004995D01*
X000215Y006015D01*
X000525Y006995D01*
X001045Y007885D01*
X001735Y008655D01*
X002565Y009255D01*
X003505Y009675D01*
X004515Y009885D01*
X005535Y009885D01*
X006545Y009675D01*
X007485Y009255D01*
X008315Y008655D01*
X009005Y007885D01*
X009525Y006995D01*
X009835Y006015D01*
X009945Y004995D01*
X009835Y003975D01*
X009525Y002995D01*
X009005Y002105D01*
X008315Y001335D01*
X007485Y000735D01*
X006545Y000315D01*
X005535Y000105D01*
X004515Y000105D01*
X003505Y000315D01*
X002565Y000735D01*
X001735Y001335D01*
X003635Y003605D02*
X003205Y004245D01*
X003055Y004995D01*
X003205Y005745D01*
X003635Y006385D01*
X004275Y006815D01*
X005025Y006965D01*
X005775Y006815D01*
X006415Y006385D01*
X006845Y005745D01*
X006995Y004995D01*
X006845Y004245D01*
X006415Y003605D01*
X005775Y003175D01*
X005025Y003025D01*
X004275Y003175D01*
X003635Y003605D01*
M02*
