G75*
%MOIN*%
%OFA0B0*%
%FSLAX24Y24*%
%IPPOS*%
%LPD*%
%AMOC8*
5,1,8,0,0,1.08239X$1,22.5*
%
%ADD10C,0.0010*%
%ADD11C,0.0020*%
%ADD12C,0.0080*%
D10*
X001735Y001335D02*
X001045Y002105D01*
X000525Y002995D01*
X000215Y003975D01*
X000105Y004995D01*
X000215Y006015D01*
X000525Y006995D01*
X001045Y007885D01*
X001735Y008655D01*
X002565Y009255D01*
X003505Y009675D01*
X004515Y009885D01*
X005535Y009885D01*
X006545Y009675D01*
X007485Y009255D01*
X008315Y008655D01*
X009005Y007885D01*
X009525Y006995D01*
X009835Y006015D01*
X009945Y004995D01*
X009835Y003975D01*
X009525Y002995D01*
X009005Y002105D01*
X008315Y001335D01*
X007485Y000735D01*
X006545Y000315D01*
X005535Y000105D01*
X004515Y000105D01*
X003505Y000315D01*
X002565Y000735D01*
X001735Y001335D01*
X002792Y002976D02*
X002717Y003106D01*
X002782Y003144D01*
X002816Y003135D01*
X002841Y003091D01*
X002832Y003057D01*
X002767Y003020D01*
X002810Y003045D02*
X002879Y003026D01*
X002882Y003115D02*
X002969Y003165D01*
X002910Y003217D02*
X002985Y003087D01*
X002882Y003115D02*
X002910Y003217D01*
X003635Y003605D02*
X003205Y004245D01*
X003055Y004995D01*
X003205Y005745D01*
X003635Y006385D01*
X004275Y006815D01*
X005025Y006965D01*
X005775Y006815D01*
X006415Y006385D01*
X006845Y005745D01*
X006995Y004995D01*
X006845Y004245D01*
X006415Y003605D01*
X005775Y003175D01*
X005025Y003025D01*
X004275Y003175D01*
X003635Y003605D01*
X002433Y004365D02*
X002333Y004365D01*
X002408Y004440D01*
X002408Y004290D01*
X002285Y004315D02*
X002285Y004415D01*
X002260Y004440D01*
X002185Y004440D01*
X002185Y004290D01*
X002260Y004290D01*
X002285Y004315D01*
X002138Y004290D02*
X002038Y004290D01*
X002038Y004440D01*
X002138Y004440D01*
X002088Y004365D02*
X002038Y004365D01*
X001991Y004290D02*
X001891Y004290D01*
X001891Y004440D01*
X002380Y005755D02*
X002336Y005780D01*
X002327Y005814D01*
X002274Y005816D02*
X002255Y005884D01*
X002277Y005872D02*
X002212Y005909D01*
X002187Y005866D02*
X002262Y005996D01*
X002327Y005958D01*
X002336Y005924D01*
X002311Y005881D01*
X002277Y005872D01*
X002377Y005901D02*
X002411Y005910D01*
X002455Y005885D01*
X002464Y005851D01*
X002451Y005829D01*
X002417Y005820D01*
X002426Y005786D01*
X002414Y005764D01*
X002380Y005755D01*
X002417Y005820D02*
X002395Y005832D01*
X003156Y006915D02*
X003131Y006959D01*
X003140Y006993D01*
X003116Y007034D02*
X003203Y007084D01*
X003212Y007118D01*
X003175Y007183D01*
X003045Y007108D01*
X003082Y007043D01*
X003116Y007034D01*
X003208Y006975D02*
X003221Y006953D01*
X003212Y006919D01*
X003190Y006906D01*
X003156Y006915D01*
X003221Y006953D02*
X003255Y006944D01*
X003277Y006956D01*
X003286Y006990D01*
X003261Y007034D01*
X003227Y007043D01*
X003151Y007224D02*
X003101Y007311D01*
X002971Y007236D01*
X003021Y007149D01*
X003061Y007230D02*
X003036Y007273D01*
X002947Y007276D02*
X002897Y007363D01*
X003027Y007438D01*
X004420Y007700D02*
X004420Y007775D01*
X004445Y007800D01*
X004495Y007800D01*
X004520Y007775D01*
X004520Y007700D01*
X004570Y007700D02*
X004420Y007700D01*
X004520Y007750D02*
X004570Y007800D01*
X004570Y007847D02*
X004470Y007947D01*
X004445Y007947D01*
X004420Y007922D01*
X004420Y007872D01*
X004445Y007847D01*
X004570Y007847D02*
X004570Y007947D01*
X005742Y007666D02*
X005872Y007591D01*
X005922Y007678D01*
X005946Y007719D02*
X005996Y007806D01*
X006019Y007847D02*
X006057Y007912D01*
X006048Y007946D01*
X005961Y007996D01*
X005927Y007987D01*
X005889Y007922D01*
X006019Y007847D01*
X005906Y007800D02*
X005881Y007757D01*
X005816Y007794D02*
X005946Y007719D01*
X005816Y007794D02*
X005866Y007881D01*
X005984Y008037D02*
X005975Y008071D01*
X006000Y008114D01*
X006035Y008123D01*
X006056Y008111D01*
X006093Y007974D01*
X006143Y008061D01*
X007011Y006872D02*
X007076Y006909D01*
X007111Y006900D01*
X007136Y006857D01*
X007126Y006822D01*
X007061Y006785D01*
X007087Y006742D02*
X007011Y006872D01*
X007105Y006810D02*
X007173Y006792D01*
X007214Y006815D02*
X007301Y006865D01*
X007257Y006840D02*
X007182Y006970D01*
X007164Y006902D01*
X007680Y005700D02*
X007680Y005550D01*
X007780Y005550D01*
X007827Y005550D02*
X007927Y005550D01*
X007975Y005550D02*
X008050Y005550D01*
X008075Y005575D01*
X008075Y005675D01*
X008050Y005700D01*
X007975Y005700D01*
X007975Y005550D01*
X007877Y005625D02*
X007827Y005625D01*
X007827Y005700D02*
X007827Y005550D01*
X007827Y005700D02*
X007927Y005700D01*
X008122Y005650D02*
X008172Y005700D01*
X008172Y005550D01*
X008122Y005550D02*
X008222Y005550D01*
X007717Y004167D02*
X007782Y004129D01*
X007791Y004095D01*
X007766Y004052D01*
X007732Y004042D01*
X007667Y004080D01*
X007710Y004055D02*
X007728Y003986D01*
X007782Y003985D02*
X007807Y004028D01*
X007872Y003990D01*
X007881Y003956D01*
X007868Y003935D01*
X007834Y003925D01*
X007791Y003950D01*
X007782Y003985D01*
X007807Y004028D02*
X007875Y004046D01*
X007931Y004043D01*
X007717Y004167D02*
X007642Y004037D01*
X006963Y003029D02*
X006833Y002954D01*
X006883Y002867D01*
X006907Y002826D02*
X006957Y002739D01*
X006980Y002698D02*
X007018Y002633D01*
X007052Y002624D01*
X007139Y002674D01*
X007148Y002708D01*
X007110Y002773D01*
X006980Y002698D01*
X006997Y002820D02*
X006972Y002864D01*
X007037Y002901D02*
X006907Y002826D01*
X007037Y002901D02*
X007087Y002814D01*
X007119Y002608D02*
X007157Y002543D01*
X007148Y002509D01*
X007126Y002497D01*
X007092Y002506D01*
X007067Y002549D01*
X007076Y002583D01*
X007119Y002608D01*
X007187Y002590D01*
X007234Y002559D01*
X005630Y001828D02*
X005630Y001778D01*
X005605Y001753D01*
X005555Y001753D02*
X005530Y001803D01*
X005530Y001828D01*
X005555Y001853D01*
X005605Y001853D01*
X005630Y001828D01*
X005555Y001753D02*
X005480Y001753D01*
X005480Y001853D01*
X005505Y001705D02*
X005555Y001705D01*
X005580Y001680D01*
X005580Y001605D01*
X005630Y001605D02*
X005480Y001605D01*
X005480Y001680D01*
X005505Y001705D01*
X005580Y001655D02*
X005630Y001705D01*
X004277Y002270D02*
X004252Y002226D01*
X004218Y002217D01*
X004194Y002176D02*
X004107Y002226D01*
X004073Y002217D01*
X004036Y002152D01*
X004166Y002077D01*
X004203Y002142D01*
X004194Y002176D01*
X004174Y002242D02*
X004109Y002280D01*
X004159Y002366D01*
X004190Y002320D02*
X004224Y002329D01*
X004268Y002304D01*
X004277Y002270D01*
X004190Y002320D02*
X004178Y002298D01*
X004174Y002242D01*
X004012Y002111D02*
X003962Y002025D01*
X004092Y001949D01*
X004142Y002036D01*
X004052Y002030D02*
X004027Y001987D01*
X004068Y001909D02*
X004018Y001822D01*
X003888Y001897D01*
D11*
X005897Y000617D02*
X005935Y000475D01*
X006025Y000423D01*
X006077Y000513D01*
X006039Y000655D01*
X006120Y000638D02*
X006158Y000496D01*
X006203Y000471D01*
X006274Y000490D01*
X006300Y000534D01*
X006371Y000554D02*
X006333Y000695D01*
X006359Y000740D01*
X006430Y000759D01*
X006475Y000733D01*
X006513Y000592D02*
X006487Y000547D01*
X006416Y000528D01*
X006371Y000554D01*
X006262Y000676D02*
X006217Y000702D01*
X006146Y000683D01*
X006120Y000638D01*
X009301Y003552D02*
X009443Y003514D01*
X009488Y003540D01*
X009507Y003611D01*
X009481Y003656D01*
X009410Y003675D01*
X009391Y003604D01*
X009301Y003552D02*
X009275Y003597D01*
X009294Y003668D01*
X009339Y003694D01*
X009323Y003775D02*
X009573Y003860D01*
X009361Y003917D01*
X009380Y003989D02*
X009408Y004095D01*
X009453Y004121D01*
X009595Y004083D01*
X009621Y004038D01*
X009593Y003932D01*
X009380Y003989D01*
X009323Y003775D02*
X009535Y003718D01*
D12*
X009570Y004601D02*
X009019Y004601D01*
X008743Y004719D02*
X008743Y004995D01*
X008507Y004759D01*
X008507Y005231D01*
X008743Y004995D01*
X008743Y005271D01*
X009019Y005389D02*
X009570Y005389D01*
X009570Y004601D01*
X008231Y004601D02*
X007680Y004601D01*
X007680Y005389D01*
X008231Y005389D01*
X006694Y007098D02*
X006969Y007575D01*
X006971Y007892D02*
X006884Y008215D01*
X006561Y008129D01*
X006971Y007892D01*
X007123Y008077D02*
X006884Y008215D01*
X006645Y008353D01*
X006681Y008650D02*
X006956Y009128D01*
X007638Y008734D01*
X007363Y008257D01*
X006287Y007969D02*
X006012Y007491D01*
X006694Y007098D01*
X004038Y007491D02*
X003763Y007969D01*
X003489Y008129D02*
X003166Y008215D01*
X003079Y007892D01*
X003489Y008129D01*
X003405Y008353D02*
X003166Y008215D01*
X002927Y008077D01*
X002687Y008257D02*
X002412Y008734D01*
X003094Y009128D01*
X003369Y008650D01*
X003081Y007575D02*
X003356Y007098D01*
X004038Y007491D01*
X002370Y005389D02*
X001819Y005389D01*
X001543Y005231D02*
X001307Y004995D01*
X001543Y004759D01*
X001543Y005231D01*
X001307Y005271D02*
X001307Y004995D01*
X001307Y004719D01*
X001031Y004601D02*
X000480Y004601D01*
X000480Y005389D01*
X001031Y005389D01*
X001819Y004601D02*
X002370Y004601D01*
X002370Y005389D01*
X003356Y002892D02*
X003081Y002415D01*
X003079Y002098D02*
X003166Y001775D01*
X003489Y001861D01*
X003079Y002098D01*
X002927Y001913D02*
X003166Y001775D01*
X003405Y001637D01*
X003369Y001340D02*
X003094Y000862D01*
X002412Y001256D01*
X002687Y001733D01*
X003763Y002021D02*
X004038Y002499D01*
X003356Y002892D01*
X006012Y002499D02*
X006287Y002021D01*
X006561Y001861D02*
X006884Y001775D01*
X006971Y002098D01*
X006561Y001861D01*
X006645Y001637D02*
X006884Y001775D01*
X007123Y001913D01*
X007363Y001733D02*
X007638Y001256D01*
X006956Y000862D01*
X006681Y001340D01*
X006969Y002415D02*
X006694Y002892D01*
X006012Y002499D01*
M02*
